<?xml version="1.0" standalone="no"?><!DOCTYPE svg PUBLIC "-//W3C//DTD SVG 1.1//EN" "http://www.w3.org/Graphics/SVG/1.1/DTD/svg11.dtd"><svg t="1692242604178" class="icon" viewBox="0 0 1024 1024" version="1.1" xmlns="http://www.w3.org/2000/svg" p-id="10438" xmlns:xlink="http://www.w3.org/1999/xlink" width="128" height="128"><path d="M449.530286 577.163429l290.102857-289.022858c9.389714-9.355429 24.585143-9.325714 33.940571 0.062858 9.355429 9.390857 9.325714 24.586286-0.062857 33.941714L466.684571 627.828571l-0.030857 0.030858c-9.317714 9.282286-24.350857 9.325714-33.722285 0.153142L252.390857 452.043429c-9.491429-9.251429-9.686857-24.445714-0.434286-33.938286 9.251429-9.491429 24.445714-9.686857 33.938286-0.434286l163.634286 159.492572z m511.515428-65.278858c0.037714 0.726857 0.042286 1.461714 0.013715 2.202286-2.094857 53.195429-11.216 100.028571-27.513143 140.445714-0.954286 2.365714-5.717714 14.504-7.205715 18.213715-3.451429 8.603429-6.693714 16.270857-10.288 24.179428-9.486857 20.873143-20.395429 41.022857-33.851428 61.557715-35.042286 53.482286-83.862857 104.043429-150.857143 151.296-57.744 40.728-127.466286 77.768-210.524571 110.561142a23.938286 23.938286 0 0 1-8.758858 1.683429 23.933714 23.933714 0 0 1-8.945142-1.682286c-83.058286-32.793143-152.780571-69.834286-210.525715-110.562285-66.994286-47.251429-115.813714-97.813714-150.857143-151.294858-13.454857-20.534857-24.363429-40.685714-33.851428-61.558857-3.593143-7.908571-6.835429-15.574857-10.285714-24.179428-1.489143-3.709714-6.251429-15.846857-7.206858-18.212572-16.251429-40.304-25.366857-86.987429-27.494857-139.998857a24.075429 24.075429 0 0 1-0.608-5.392v-400c0-3.019429 0.557714-5.908571 1.576-8.571428 1.822857-9.385143 9.193143-17.158857 19.161143-19.020572L488.297143 5.876571a129.142857 129.142857 0 0 1 47.408 0l405.273143 75.674286c11.318857 2.114286 19.288 11.851429 19.589714 22.913143 0.377143 1.690286 0.576 3.446857 0.576 5.250286v400c0 0.731429-0.033143 1.456-0.097143 2.171428z m-47.870857-0.912A24.393143 24.393143 0 0 1 913.142857 509.714286V125.182857L526.893714 53.062857a81.142857 81.142857 0 0 0-29.787428 0L110.285714 125.290286v382.626285c0.307429 1.384 0.496 2.816 0.553143 4.282286 1.888 47.954286 9.96 89.396571 24.067429 124.384 1.060571 2.628571 5.845714 14.822857 7.238857 18.294857 3.2 7.979429 6.170286 15.002286 9.435428 22.186286 8.514286 18.731429 18.260571 36.737143 30.301715 55.113143 31.736 48.434286 76.322286 94.611429 138.373714 138.377143 52.514286 37.04 115.992 71.100571 191.710857 101.638857 75.718857-30.538286 139.196571-64.598857 191.712-101.638857 62.051429-43.765714 106.638857-89.942857 138.373714-138.377143 12.041143-18.377143 21.788571-36.382857 30.302858-55.113143 3.265143-7.184 6.234286-14.206857 9.434285-22.186286 1.394286-3.474286 6.179429-15.666286 7.238857-18.294857 14.107429-34.987429 22.179429-76.430857 24.068572-124.384 0.014857-0.411429 0.041143-0.820571 0.077714-1.226286z" fill="#bfcbd9" p-id="10439"></path></svg>