<?xml version="1.0" standalone="no"?><!DOCTYPE svg PUBLIC "-//W3C//DTD SVG 1.1//EN" "http://www.w3.org/Graphics/SVG/1.1/DTD/svg11.dtd"><svg t="1691718945741" class="icon" viewBox="0 0 1024 1024" version="1.1" xmlns="http://www.w3.org/2000/svg" p-id="4536" xmlns:xlink="http://www.w3.org/1999/xlink" width="64" height="64"><path d="M141.730909 369.989818a34.909091 34.909091 0 0 1 34.909091 34.909091v220.020364a34.909091 34.909091 0 0 1-69.818182 0V404.898909a34.909091 34.909091 0 0 1 34.909091-34.909091zM847.825455 46.545455H233.565091a126.929455 126.929455 0 0 0-126.743273 126.743272v66.978909a34.909091 34.909091 0 0 0 69.818182 0V173.288727c0-31.371636 25.553455-56.925091 56.925091-56.925091h614.260364c31.371636 0 56.925091 25.553455 56.92509 56.925091v677.422546c0 31.371636-25.553455 56.925091-56.92509 56.925091H233.565091a57.018182 57.018182 0 0 1-56.925091-56.925091v-72.750546a34.443636 34.443636 0 0 0-30.394182-33.978182h83.502546a34.909091 34.909091 0 0 0 0-69.818181H84.340364a34.909091 34.909091 0 0 0 0 69.818181h52.922181a34.536727 34.536727 0 0 0-30.394181 33.978182v72.750546A126.836364 126.836364 0 0 0 233.565091 977.454545h614.260364a126.929455 126.929455 0 0 0 126.743272-126.743272V173.288727A126.929455 126.929455 0 0 0 847.825455 46.545455zM382.324364 655.685818l87.831272-256.139636-41.611636-112.733091a34.909091 34.909091 0 0 1 32.721455-46.964364h177.943272a34.862545 34.862545 0 0 1 32.721455 46.964364l-41.658182 112.733091 87.831273 256.139636a34.909091 34.909091 0 0 1-13.824 40.494546l-139.636364 91.927272a35.002182 35.002182 0 0 1-39.330909-0.698181L395.170909 695.482182a34.909091 34.909091 0 0 1-12.846545-39.796364z m129.070545-346.065454l20.154182 54.551272h37.422545l20.200728-54.551272h-77.777455z m-54.551273 343.970909l89.320728 63.069091 97.140363-63.953455-74.984727-218.670545h-36.165818l-75.310546 219.554909zM84.340364 363.240727h145.454545a34.909091 34.909091 0 0 0 0-69.818182H84.340364a34.909091 34.909091 0 0 0 0 69.818182z" fill="#bfcbd9" p-id="4537"></path></svg>