<?xml version="1.0" standalone="no"?><!DOCTYPE svg PUBLIC "-//W3C//DTD SVG 1.1//EN" "http://www.w3.org/Graphics/SVG/1.1/DTD/svg11.dtd"><svg class="icon" width="128px" height="128.00px" viewBox="0 0 1024 1024" version="1.1" xmlns="http://www.w3.org/2000/svg"><path fill="#bfcbd9" d="M597.696 32c196.672 6.272 356.48 168.576 362.304 367.04V992H96V32h501.696z m-54.592 56.448H151.744v847.104h752.512v-488.96c0-16.32-1.92-31.04-5.568-44.224l-3.008-9.792-3.136-8.128-3.52-7.68-4.992-8.96-5.888-8.832-7.04-8.96-6.336-6.72-8.064-7.488-11.648-9.088-5.248-3.52-8.576-5.184-13.568-7.04-12.8-5.44-14.144-5.056-15.168-4.352-22.528-4.864-17.92-2.688-15.36-1.6-13.76-0.832-12.8-0.256-11.904 0.256 1.28-8.832a279.232 279.232 0 0 0-0.896-68.672l-2.368-13.12-2.752-11.2-2.56-8.448-5.696-14.72-3.904-8-6.08-10.24-1.6-2.432a116.672 116.672 0 0 0-9.088-11.648l-7.232-7.36-5.504-4.8-7.808-5.76-8.448-5.184-4.352-2.368-4.736-2.176-6.784-2.88-8.96-3.008a175.168 175.168 0 0 0-50.688-6.848zM352 592l0.32 10.496a160 160 0 0 0 319.36 0l0.32-10.496h64l-0.32 12.288a224 224 0 0 1-447.36 0L288 592h64zM512 256a256 256 0 0 1 255.68 243.2L768 512h64v64H192V512h64a256 256 0 0 1 256-256z m0 64c-10.88 0-21.568 0.896-32 2.624V448h-64V345.664a192 192 0 0 0-95.552 153.152L320 512h384c0-71.04-38.592-133.12-96-166.272V448h-64V322.688l-10.24-1.472-10.496-0.896L512 320z m211.584-191.68c7.68 16.832 13.312 32.64 16.896 47.36 3.52 14.848 5.952 31.488 7.296 49.92 21.888 3.008 41.472 7.168 58.752 12.544 17.28 5.44 34.368 12.672 51.2 21.888a319.68 319.68 0 0 0-56.768-75.968 318.272 318.272 0 0 0-77.44-55.744z"  /></svg>