<?xml version="1.0" standalone="no"?><!DOCTYPE svg PUBLIC "-//W3C//DTD SVG 1.1//EN" "http://www.w3.org/Graphics/SVG/1.1/DTD/svg11.dtd"><svg t="1691721563720" class="icon" viewBox="0 0 1024 1024" version="1.1" xmlns="http://www.w3.org/2000/svg" p-id="25246" xmlns:xlink="http://www.w3.org/1999/xlink" width="128" height="128"><path d="M397.934467 1024H327.961833v-307.765811h32.426343a53.475021 53.475021 0 0 0 53.47502-52.337255V444.876902a52.906138 52.906138 0 0 0-53.47502-52.337254h-170.66496a52.906138 52.906138 0 0 0-53.475021 52.337254v218.451149a52.906138 52.906138 0 0 0 53.475021 52.906138h32.426342V1024H152.176924v-246.326426a121.172122 121.172122 0 0 1-85.33248-113.77664V444.876902a120.603238 120.603238 0 0 1 122.309888-119.465472h170.66496a121.741005 121.741005 0 0 1 122.878772 119.465472v218.451149a120.603238 120.603238 0 0 1-85.33248 113.77664z m490.946202-88.176896a64.852685 64.852685 0 1 1 66.559334-64.852685 65.421568 65.421568 0 0 1-66.559334 64.852685z m-259.41074-30.719693v-5.688832a30.15081 30.15081 0 0 1-12.51543-15.359846 66.559334 66.559334 0 0 1-3.982183-14.22208V547.275878h-49.492838a32.426342 32.426342 0 0 1-23.893094-10.80878 31.857459 31.857459 0 0 1-9.102132-24.461978 34.132992 34.132992 0 0 1 32.995226-32.426342h49.492838V157.590886a34.132992 34.132992 0 0 1 6.257716-19.342028 36.408525 36.408525 0 0 1 29.581926-15.92873h88.176896a34.132992 34.132992 0 0 1 34.132992 34.132992 34.701875 34.701875 0 0 1-33.564109 32.426342h-56.88832v290.130432h56.88832a34.701875 34.701875 0 0 1 34.701876 34.132992 34.132992 34.132992 0 0 1-34.701876 33.564109h-56.88832v289.561549h56.88832a34.701875 34.701875 0 0 1 34.701876 34.132992 35.270758 35.270758 0 0 1-34.701876 34.132992z m259.41074-326.538957A64.852685 64.852685 0 1 1 955.440003 512.00512a65.421568 65.421568 0 0 1-66.559334 66.559334zM416.138729 138.817741a140.51415 140.51415 0 0 1-141.651917 138.807501 141.083034 141.083034 0 0 1-142.2208-138.807501A141.083034 141.083034 0 0 1 274.486812 0.01024a139.945267 139.945267 0 0 1 141.651917 138.807501z m-69.40375 0a72.81705 72.81705 0 0 0-145.065216 0 72.81705 72.81705 0 0 0 145.065216 0z m544.421222 81.350297h-4.551065a65.421568 65.421568 0 0 1-65.990451-64.283801 65.421568 65.421568 0 0 1 65.990451-64.852685h4.551065a65.421568 65.421568 0 0 1 65.990452 64.852685 65.421568 65.421568 0 0 1-65.990452 64.852685z" fill="#bfcbd9" p-id="25247"></path></svg>